<svg xmlns="http://www.w3.org/2000/svg" viewBox="0 0 64 64" role="img" aria-labelledby="title desc">
  <title id="title">Chart Renderer favicon</title>
  <desc id="desc">A compact CR mark with a chart line on a blueprint grid.</desc>
  <rect width="64" height="64" rx="14" fill="#111827"/>
  <path d="M14 14h36M14 26h36M14 38h36M14 50h36M14 14v36M26 14v36M38 14v36M50 14v36" stroke="#344054" stroke-width="1"/>
  <path d="M15 43l9-10 8 5 8-15 10 7" fill="none" stroke="#34d399" stroke-width="5" stroke-linecap="round" stroke-linejoin="round"/>
  <path d="M17 20c0-4 3-7 8-7h8v6h-8c-2 0-3 1-3 3v20c0 2 1 3 3 3h8v6h-8c-5 0-8-3-8-7V20z" fill="#ffffff"/>
  <path d="M36 13h8c5 0 8 3 8 8 0 4-2 6-5 7l7 23h-7l-6-21h-1v21h-6V13h2zm4 6v9h4c2 0 3-2 3-5 0-2-1-4-3-4h-4z" fill="#e8f1ff"/>
</svg>
